<?xml version="1.0" encoding="UTF-8" standalone="no"?>
<!DOCTYPE svg PUBLIC "-//W3C//DTD SVG 1.1//EN"
"http://www.w3.org/Graphics/SVG/1.1/DTD/svg11.dtd">


<!-- Page 1 -->
<svg x="0" y="0" width="466" height="187" viewBox="0 0 466 187" version="1.1" xmlns="http://www.w3.org/2000/svg" xmlns:xlink="http://www.w3.org/1999/xlink"
style="display: block;margin-left: auto;margin-right: auto;">
<defs>
<clipPath id="c_1"><path d="M0,0H466V187H0Z"/></clipPath>
<style type="text/css"><![CDATA[
text { white-space: pre; }
path, image { pointer-events: none; }
text::-moz-selection {
	color: transparent;
	background: rgba(0, 106, 173, 0.4);
}
text::selection {
	color: transparent;
	background: rgba(0, 106, 173, 0.4);
}

.s1{
font-size: 15.22px;
font-family: CMMI10_i;
fill: TRANSPARENT;
}
.s2{
font-size: 15.22px;
font-family: CMR10_m;
fill: TRANSPARENT;
}
.s3{
font-size: 10.65px;
font-family: CMMI7_k;
fill: TRANSPARENT;
}
.s4{
font-size: 10.65px;
font-family: CMR7_o;
fill: TRANSPARENT;
}
.s5{
font-size: 15.22px;
font-family: CMSY10_q;
fill: TRANSPARENT;
}

.g0{
fill: #FF0000;
stroke: #FF0000;
stroke-width: 0.608;
stroke-linecap: butt;
stroke-linejoin: miter;
}
.g1{
fill: none;
stroke: #000000;
stroke-width: 1.217;
stroke-linecap: butt;
stroke-linejoin: miter;
}
.g2{
fill: #FF8000;
stroke: #FF8000;
stroke-width: 0.608;
stroke-linecap: butt;
stroke-linejoin: miter;
}
.g3{
fill: none;
stroke: #00AEEF;
stroke-width: 0.608;
stroke-linecap: butt;
stroke-linejoin: miter;
}
.g4{
fill: none;
stroke: #00AEEF;
stroke-width: 0.487;
stroke-linecap: round;
stroke-linejoin: round;
}
.g5{
fill: none;
stroke: #00AEEF;
stroke-width: 0.608;
stroke-linecap: butt;
stroke-linejoin: miter;
stroke-dasharray: 5,5;
}
.g6{
fill: none;
stroke: #FF0000;
stroke-width: 0.608;
stroke-linecap: butt;
stroke-linejoin: miter;
}
.g7{
fill: none;
stroke: #FF0000;
stroke-width: 0.487;
stroke-linecap: round;
stroke-linejoin: round;
}
.g8{
fill: none;
stroke: #FF8000;
stroke-width: 0.608;
stroke-linecap: butt;
stroke-linejoin: miter;
}
.g9{
fill: none;
stroke: #FF8000;
stroke-width: 0.487;
stroke-linecap: round;
stroke-linejoin: round;
}
.ga{
fill: none;
stroke: #BF0040;
stroke-width: 1.217;
stroke-linecap: butt;
stroke-linejoin: miter;
}
.gb{
fill: none;
stroke: #BF0040;
stroke-width: 0.974;
stroke-linecap: round;
stroke-linejoin: round;
}

]]></style>

<path d="M248,-16C174,-16,122,37,122,108c0,33,20,83,35,123c25,65,94,243,106,282c6,16,17,48,17,80c0,49,-26,49,-39,49C189,642,128,596,87,452C79,428,78,425,63,425c-3,0,-19,0,-19,15c0,14,58,235,202,235c76,0,125,-56,125,-125c0,-29,-7,-50,-20,-81C336,428,336,425,318,380L258,220C223,127,214,105,214,67c0,-35,11,-50,37,-50c77,0,128,93,155,189c8,23,8,28,23,28c5,0,19,0,19,-16C448,205,391,-16,248,-16ZM353,874c-37,0,-58,26,-58,55c0,41,41,81,82,81c36,0,57,-25,57,-55c0,-46,-46,-81,-81,-81Z"
id="f0_4"
transform="scale(0.001,-0.001)"/>

<path d="M43,0V47c102,0,119,0,119,69V911c0,74,-12,85,-119,85v47l220,17V327L478,513c12,11,34,29,34,60c0,20,-15,37,-44,38l21,46c95,-3,150,-3,192,-3c20,0,-42,4,65,4V611c-33,-1,-97,-4,-193,-82C538,516,429,425,429,419c0,-5,8,-14,9,-17L633,128C691,47,724,47,781,47L736,3C692,5,648,5,616,5C526,2,648,0,483,0V47c29,0,55,6,55,36c0,27,-64,113,-182,275L258,273V116C258,47,275,47,377,47L316,3C255,5,209,5,165,5C93,2,209,0,43,0Z"
id="f1_3"
transform="scale(0.001,-0.001)"/>

<path d="M266,17c59,0,130,55,180,157c28,58,78,234,78,324c0,98,-41,144,-96,144C388,642,319,619,244,519C231,503,231,500,222,466L188,325C163,229,163,200,163,171C163,58,214,17,266,17Zm0,-33C153,-16,72,78,72,223c0,54,6,78,24,154L222,875c7,33,21,84,21,95c0,15,-3,26,-76,26c-23,0,-37,0,-37,18c0,28,17,29,29,31c40,3,151,15,186,15c20,0,20,-15,20,-17L252,584c46,47,109,91,179,91C553,675,634,570,634,431C634,211,446,-16,266,-16Z"
id="f0_2"
transform="scale(0.001,-0.001)"/>

<path d="M310,-16C151,-16,63,104,63,241c0,216,203,434,409,434c109,0,180,-56,180,-131c0,-61,-41,-98,-85,-98c-29,0,-57,17,-57,54c0,10,3,36,28,59c21,22,43,22,67,22c-21,41,-79,61,-131,61C390,642,306,576,258,489C206,394,176,246,176,183C176,92,217,17,313,17c19,0,185,0,306,151c9,12,12,15,20,15c9,0,18,-10,18,-20C657,145,529,-16,310,-16Z"
id="f0_3"
transform="scale(0.001,-0.001)"/>

<path d="M490,-381c-15,0,-146,99,-238,287C168,78,151,263,151,382c0,128,19,298,97,466c90,194,227,298,242,298c10,0,16,-5,16,-15c0,-5,0,-8,-20,-26C298,914,240,648,240,382c0,-234,49,-522,240,-714c26,-26,26,-29,26,-34c0,-10,-6,-15,-16,-15Z"
id="f1_1"
transform="scale(0.001,-0.001)"/>

<path d="M383,-16C269,-16,167,37,167,176c0,58,18,128,85,308c11,26,28,69,28,107c0,49,-25,51,-39,51C188,642,128,594,87,452C79,428,78,425,63,425c-3,0,-19,0,-19,15c0,14,57,235,202,235c75,0,125,-56,125,-125c0,-31,-9,-52,-26,-98C273,264,266,205,266,156C266,130,266,17,388,17c60,0,105,47,141,128c-2,8,-2,11,-2,28c0,27,3,55,14,100c11,40,82,332,87,343c11,30,38,42,56,42c23,0,45,-13,45,-41c0,-9,-16,-65,-23,-99L642,261C636,240,625,193,625,150C625,63,666,17,738,17c75,0,128,53,168,134c40,78,84,228,84,280c0,73,-38,113,-55,130c-14,12,-23,21,-23,41c0,34,38,73,76,73c26,0,68,-23,68,-107c0,-73,-49,-278,-101,-397C915,79,848,-16,733,-16C688,-16,582,-7,542,90C481,-16,409,-16,383,-16Z"
id="f0_7"
transform="scale(0.001,-0.001)"/>

<path d="M315,-14C231,-14,170,43,170,115c0,26,7,44,13,64l97,246c38,94,47,117,47,153c0,41,-14,53,-38,53C232,631,165,576,125,445c-4,-17,-6,-25,-27,-25c-5,0,-26,0,-26,20c0,26,70,234,221,234c84,0,145,-58,145,-130c0,-15,-4,-34,-9,-49C423,477,368,338,354,301C338,261,321,220,306,179C292,145,281,116,281,81c0,-34,8,-53,38,-53c60,0,127,62,162,184c6,17,8,26,29,26c5,0,25,0,25,-20C535,196,468,-14,315,-14Zm94,885c-41,0,-61,32,-61,58c0,44,45,84,86,84c43,0,61,-34,61,-58c0,-41,-41,-84,-86,-84Z"
id="f2_1"
transform="scale(0.001,-0.001)"/>

<path d="M669,-179c-36,0,-36,36,-36,56V345H163c-21,0,-56,0,-56,38c0,37,37,37,56,37H633V889c0,22,0,57,38,57c36,0,36,-37,36,-57V420h468c21,0,56,0,56,-38c0,-37,-36,-37,-56,-37H707V-123c0,-21,0,-56,-38,-56Z"
id="f3_1"
transform="scale(0.001,-0.001)"/>

<path d="M167,-14c-34,0,-52,25,-52,48c0,3,0,6,7,33L338,932c3,14,6,23,6,34c0,12,0,22,-74,22c-18,0,-39,0,-39,22c0,32,21,33,33,35c39,3,165,15,196,15c18,0,24,-13,24,-21c0,-2,-4,-21,-6,-25L327,405c63,26,113,73,177,134c78,72,158,135,245,135c81,0,117,-57,117,-107c0,-64,-46,-98,-87,-98c-35,0,-61,23,-61,57c0,22,14,74,80,85c-13,15,-33,20,-51,20C662,631,585,559,507,486C481,463,425,413,380,385c65,-5,248,-26,248,-162c0,-17,-6,-43,-8,-47c-9,-40,-9,-43,-9,-69c0,-41,12,-79,54,-79c74,0,116,108,134,174c8,29,9,36,31,36c4,0,24,0,24,-20C854,217,808,-14,660,-14C587,-14,498,34,498,142c0,17,0,25,6,47c3,16,3,23,3,31c0,79,-87,115,-195,125C306,324,240,55,237,49C228,15,208,-14,167,-14Z"
id="f2_2"
transform="scale(0.001,-0.001)"/>

<path d="M171,-294c-8,0,-15,6,-15,17c0,5,0,8,17,24c50,51,104,142,104,255c0,21,-2,22,-4,22c-1,0,-3,-1,-7,-4C251,6,231,0,212,0C162,0,131,40,131,81c0,43,31,81,81,81c60,0,98,-60,98,-160C310,-176,188,-294,171,-294Z"
id="f0_1"
transform="scale(0.001,-0.001)"/>

<path d="M379,17c56,0,130,50,182,157c27,58,78,234,78,324c0,90,-37,144,-98,144c-26,0,-70,-11,-124,-58C390,561,348,518,338,477L263,177c-5,-18,-5,-21,-5,-24C258,144,278,17,379,17ZM-28,-295c-12,0,-20,6,-20,18c0,29,17,29,35,29c66,0,70,11,82,63L240,493c6,26,11,43,11,78c0,58,-22,71,-48,71C148,642,118,568,92,460C83,426,81,425,66,425c-3,0,-19,0,-19,15c0,5,20,96,48,148c13,28,43,87,113,87c56,0,122,-32,137,-114c51,59,124,114,200,114C662,675,749,574,749,431C749,206,558,-16,380,-16C303,-16,260,37,240,81C229,43,165,-205,165,-224c0,-13,0,-24,76,-24c22,0,37,0,37,-17c0,-30,-20,-30,-76,-30c-52,4,-103,4,-145,4c-45,-4,42,-4,-85,-4Z"
id="f0_6"
transform="scale(0.001,-0.001)"/>

<path d="M102,-381c-9,0,-15,6,-15,15c0,5,0,8,20,26c189,193,246,461,246,722c0,319,-87,562,-237,713c-29,28,-29,31,-29,36c0,9,6,15,15,15c16,0,147,-99,239,-287C425,686,442,501,442,382C442,254,423,84,345,-83C255,-277,118,-381,102,-381Z"
id="f1_2"
transform="scale(0.001,-0.001)"/>

<path d="M128,-16c-13,0,-44,8,-44,42c0,9,0,12,6,34L312,940l4,30c0,15,-3,26,-76,26c-23,0,-37,0,-37,18c0,28,17,29,29,31c40,3,151,15,187,15c19,0,19,-15,19,-17L280,399c58,23,117,84,169,142C559,663,629,675,672,675c69,0,104,-50,104,-96c0,-60,-44,-93,-84,-93c-41,0,-58,29,-58,53c0,19,14,78,87,83c-3,3,-3,4,-6,6c-12,9,-14,9,-32,12c-3,2,-5,2,-14,2C594,642,524,576,451,495C416,458,367,409,319,382C449,365,545,321,545,222c0,-16,0,-22,-6,-48C533,150,527,115,527,89c0,-55,20,-72,49,-72c67,0,102,78,133,189c4,22,6,28,21,28c5,0,19,0,19,-16c0,-3,-17,-87,-55,-154C660,8,619,-16,573,-16C493,-16,432,44,432,134c0,17,3,36,6,54c5,15,5,21,5,32C443,321,318,345,266,350C257,312,188,29,180,15C171,-2,148,-16,128,-16Z"
id="f0_5"
transform="scale(0.001,-0.001)"/>

<path d="M180,351c-26,0,-53,0,-53,31c0,31,27,31,53,31h827c26,0,53,0,53,-31c0,-31,-27,-31,-53,-31Z"
id="f4_1"
transform="scale(0.001,-0.001)"/>


</defs>
<path d="M0,0
L0,187
L466,187
L466,0 Z " 
fill="#FFFFFF" stroke="none"/>
<g clip-path="url(#c_1)">
<path d="M227.3,64.3V42.7h21.6V64.3Z" class="g0"/>
<path d="M32.4,64.3V42.7H465.5V64.3Z" class="g1"/>
<path d="M119,129.3V107.6h21.6v21.7Z" class="g2"/>
<path d="M227.3,129.3V107.6h21.6v21.7Z" class="g0"/>
<path d="M75.7,129.3V107.6H292.2v21.7Z" class="g1"/>
<g fill="#00AEEF" >
<use xlink:href="#f0_4" transform="matrix(10,0,0,10,73.1,26)"/>
</g>
<text x="73" y="26" class="s1">i</text>
<path d="M75.7,31.4V42" class="g3"/>
<path d="M78.1,40.1c-.9,.2,-2.3,1.9,-2.4,2.3C75.5,42,74.2,40.3,73.3,40.1" class="g4"/>
<path d="M75.7,42.7V64.3" class="g5"/>
<path d="M83.7,21H226.6" class="g6"/>
<path d="M224.7,18.6c.2,.9,1.9,2.3,2.3,2.4c-.4,.2,-2.1,1.5,-2.3,2.5" class="g7"/>
<g fill="#FF0000" >
<use xlink:href="#f1_3" transform="matrix(10,0,0,10,151.5,15.6)"/>
</g>
<g fill="#FF8000" >
<use xlink:href="#f0_2" transform="matrix(10,0,0,10,83.3,89.8)"/>
</g>
<text x="151" y="15" class="s2">k</text>
<g fill="#FF8000" >
<use xlink:href="#f0_3" transform="matrix(10,0,0,10,89.8,89.8)"/>
<use xlink:href="#f1_1" transform="matrix(10,0,0,10,96.4,89.8)"/>
</g>
<text x="83" y="89" class="s1">bc</text>
<g fill="#FF8000" >
<use xlink:href="#f0_7" transform="matrix(10,0,0,10,102.3,89.8)"/>
</g>
<text x="96" y="89" class="s2">(</text>
<g fill="#FF8000" >
<use xlink:href="#f2_1" transform="matrix(7,0,0,7,113.2,92.1)"/>
</g>
<text x="102" y="89" class="s1">w</text>
<g fill="#FF8000" >
<use xlink:href="#f3_1" transform="matrix(7,0,0,7,117.5,92.1)"/>
</g>
<text x="113" y="92" class="s3">i</text>
<g fill="#FF8000" >
<use xlink:href="#f2_2" transform="matrix(7,0,0,7,126.9,92.1)"/>
</g>
<text x="117" y="92" class="s4">+</text>
<g fill="#FF8000" >
<use xlink:href="#f0_1" transform="matrix(10,0,0,10,134.4,89.8)"/>
</g>
<text x="126" y="92" class="s3">k</text>
<g fill="#FF8000" >
<use xlink:href="#f0_6" transform="matrix(10,0,0,10,141.1,89.8)"/>
<use xlink:href="#f1_2" transform="matrix(10,0,0,10,148.8,89.8)"/>
</g>
<text x="134" y="89" dx="0,2.5" class="s1">,p</text>
<text x="148" y="89" class="s2">)</text>
<path d="M119,99v7.9" class="g8"/>
<path d="M121.4,105.1c-.9,.2,-2.3,1.8,-2.4,2.3c-.2,-.5,-1.5,-2.1,-2.4,-2.3" class="g9"/>
<path d="M227.3,172.6V150.9h21.6v21.7Z" class="g2"/>
<path d="M184,172.6V150.9H400.5v21.7Z" class="g1"/>
<path d="M75.7,161.8H182.9" class="ga"/>
<path d="M180.5,158.6c.2,1.2,2.4,3,3,3.2c-.6,.2,-2.8,1.9,-3,3.1" class="gb"/>
<g fill="#BF0040" >
<use xlink:href="#f0_5" transform="matrix(10,0,0,10,80.6,178.9)"/>
<use xlink:href="#f4_1" transform="matrix(10,0,0,10,92.4,178.9)"/>
</g>
<text x="80" y="178" class="s1">k</text>
<g fill="#BF0040" >
<use xlink:href="#f0_2" transform="matrix(10,0,0,10,107.6,178.9)"/>
</g>
<text x="92" y="178" class="s5">-</text>
<g fill="#BF0040" >
<use xlink:href="#f0_3" transform="matrix(10,0,0,10,114.1,178.9)"/>
<use xlink:href="#f1_1" transform="matrix(10,0,0,10,120.7,178.9)"/>
</g>
<text x="107" y="178" class="s1">bc</text>
<g fill="#BF0040" >
<use xlink:href="#f0_7" transform="matrix(10,0,0,10,126.7,178.9)"/>
</g>
<text x="120" y="178" class="s2">(</text>
<g fill="#BF0040" >
<use xlink:href="#f2_1" transform="matrix(7,0,0,7,137.6,181.1)"/>
</g>
<text x="126" y="178" class="s1">w</text>
<g fill="#BF0040" >
<use xlink:href="#f3_1" transform="matrix(7,0,0,7,141.9,181.1)"/>
</g>
<text x="137" y="181" class="s3">i</text>
<g fill="#BF0040" >
<use xlink:href="#f2_2" transform="matrix(7,0,0,7,151.2,181.1)"/>
</g>
<text x="141" y="181" class="s4">+</text>
<g fill="#BF0040" >
<use xlink:href="#f0_1" transform="matrix(10,0,0,10,158.7,178.9)"/>
</g>
<text x="151" y="181" class="s3">k</text>
<g fill="#BF0040" >
<use xlink:href="#f0_6" transform="matrix(10,0,0,10,165.5,178.9)"/>
<use xlink:href="#f1_2" transform="matrix(10,0,0,10,173.1,178.9)"/>
</g>
<text x="158" y="178" dx="0,2.5" class="s1">,p</text>
<g fill="#000000" >
<use xlink:href="#f0_7" transform="matrix(10,0,0,10,5.1,56.8)"/>
</g>
<text x="173" y="178" class="s2">)</text>
<g fill="#000000" >
<use xlink:href="#f0_6" transform="matrix(10,0,0,10,50.2,120.3)"/>
</g>
<text x="5" y="56" class="s1">w</text>
<text x="50" y="120" class="s1">p</text>

</g>

<!-- Any embedded fonts defined here -->
<style type="text/css" ><![CDATA[

@font-face {
	font-family: CMMI10_i;
	src: url("fonts/CMMI10_i.woff") format("woff");
}

@font-face {
	font-family: CMMI7_k;
	src: url("fonts/CMMI7_k.woff") format("woff");
}

@font-face {
	font-family: CMR10_m;
	src: url("fonts/CMR10_m.woff") format("woff");
}

@font-face {
	font-family: CMR7_o;
	src: url("fonts/CMR7_o.woff") format("woff");
}

@font-face {
	font-family: CMSY10_q;
	src: url("fonts/CMSY10_q.woff") format("woff");
}

]]></style>

</svg>
