<?xml version="1.0" encoding="UTF-8" standalone="no"?>
<!DOCTYPE svg PUBLIC "-//W3C//DTD SVG 1.1//EN"
"http://www.w3.org/Graphics/SVG/1.1/DTD/svg11.dtd">


<!-- Page 1 -->
<svg x="0" y="0" width="379" height="187" viewBox="0 0 379 187" version="1.1" xmlns="http://www.w3.org/2000/svg" xmlns:xlink="http://www.w3.org/1999/xlink"
style="display: block;margin-left: auto;margin-right: auto;">
<defs>
<clipPath id="c_1"><path d="M0,0H379V187H0Z"/></clipPath>
<style type="text/css"><![CDATA[
text { white-space: pre; }
path, image { pointer-events: none; }
text::-moz-selection {
	color: transparent;
	background: rgba(0, 106, 173, 0.4);
}
text::selection {
	color: transparent;
	background: rgba(0, 106, 173, 0.4);
}

.s1{
font-size: 15.22px;
font-family: CMMI10_k;
fill: TRANSPARENT;
}
.s2{
font-size: 10.65px;
font-family: CMSY7_u;
fill: TRANSPARENT;
}
.s3{
font-size: 10.65px;
font-family: CMMI7_m;
fill: TRANSPARENT;
}
.s4{
font-size: 7.61px;
font-family: CMSY5_s;
fill: TRANSPARENT;
}
.s5{
font-size: 15.22px;
font-family: CMR10_o;
fill: TRANSPARENT;
}
.s6{
font-size: 15.22px;
font-family: CMSY10_q;
fill: TRANSPARENT;
}

.g0{
fill: #00FF00;
stroke: #00FF00;
stroke-width: 0.608;
stroke-linecap: butt;
stroke-linejoin: miter;
}
.g1{
fill: #FF8000;
stroke: #FF8000;
stroke-width: 0.608;
stroke-linecap: butt;
stroke-linejoin: miter;
}
.g2{
fill: none;
stroke: #00FF00;
stroke-width: 1.217;
stroke-linecap: butt;
stroke-linejoin: miter;
}
.g3{
fill: none;
stroke: #00FF00;
stroke-width: 0.974;
stroke-linecap: round;
stroke-linejoin: round;
}
.g4{
fill: #FF0000;
stroke: #FF0000;
stroke-width: 0.608;
stroke-linecap: butt;
stroke-linejoin: miter;
}
.g5{
fill: none;
stroke: #000000;
stroke-width: 1.217;
stroke-linecap: butt;
stroke-linejoin: miter;
}
.g6{
fill: none;
stroke: #00AEEF;
stroke-width: 0.608;
stroke-linecap: butt;
stroke-linejoin: miter;
}
.g7{
fill: none;
stroke: #00AEEF;
stroke-width: 0.487;
stroke-linecap: round;
stroke-linejoin: round;
}
.g8{
fill: none;
stroke: #00AEEF;
stroke-width: 0.608;
stroke-linecap: butt;
stroke-linejoin: miter;
stroke-dasharray: 5,5;
}
.g9{
fill: none;
stroke: #FF0000;
stroke-width: 0.608;
stroke-linecap: butt;
stroke-linejoin: miter;
}
.ga{
fill: none;
stroke: #FF0000;
stroke-width: 0.487;
stroke-linecap: round;
stroke-linejoin: round;
}
.gb{
fill: none;
stroke: #BF0040;
stroke-width: 1.217;
stroke-linecap: butt;
stroke-linejoin: miter;
}
.gc{
fill: none;
stroke: #BF0040;
stroke-width: 0.974;
stroke-linecap: round;
stroke-linejoin: round;
}

]]></style>

<path d="M379,17c56,0,130,50,182,157c27,58,78,234,78,324c0,90,-37,144,-98,144c-26,0,-70,-11,-124,-58C390,561,348,518,338,477L263,177c-5,-18,-5,-21,-5,-24C258,144,278,17,379,17ZM-28,-295c-12,0,-20,6,-20,18c0,29,17,29,35,29c66,0,70,11,82,63L240,493c6,26,11,43,11,78c0,58,-22,71,-48,71C148,642,118,568,92,460C83,426,81,425,66,425c-3,0,-19,0,-19,15c0,5,20,96,48,148c13,28,43,87,113,87c56,0,122,-32,137,-114c51,59,124,114,200,114C662,675,749,574,749,431C749,206,558,-16,380,-16C303,-16,260,37,240,81C229,43,165,-205,165,-224c0,-13,0,-24,76,-24c22,0,37,0,37,-17c0,-30,-20,-30,-76,-30c-52,4,-103,4,-145,4c-45,-4,42,-4,-85,-4Z"
id="f0_4"
transform="scale(0.001,-0.001)"/>

<path d="M133,63C121,63,73,78,73,96c0,2,6,22,8,25L283,782c7,25,26,72,84,72c47,0,90,-37,90,-84c0,-11,-2,-23,-14,-49L156,89C145,66,144,63,133,63Z"
id="f1_1"
transform="scale(0.001,-0.001)"/>

<path d="M237,-16C154,-16,96,41,96,124c0,27,6,53,116,487H78c-31,0,-43,0,-43,18c0,29,15,29,46,29H225l59,243c14,54,57,55,61,55c26,0,45,-15,45,-41c0,-9,-8,-40,-63,-257H461c28,0,43,0,43,-16c0,-31,-15,-31,-46,-31H315L202,160c-6,-26,-9,-36,-9,-73c0,-50,15,-70,47,-70c52,0,133,36,198,195c8,17,10,22,23,22c7,0,19,0,19,-16C480,206,393,-16,237,-16Z"
id="f0_5"
transform="scale(0.001,-0.001)"/>

<path d="M458,28c78,0,153,73,191,148c46,88,80,244,80,307c0,104,-52,148,-112,148C568,631,492,608,403,490L327,183c-2,-6,-5,-16,-5,-23C322,145,350,28,458,28ZM20,-295c-8,0,-21,6,-21,23c0,32,21,32,41,32c61,0,64,12,75,55L289,510c1,9,4,29,4,46c0,41,-10,75,-50,75C183,631,154,555,131,466C121,425,119,420,98,420c-5,0,-26,0,-26,20c0,9,24,101,55,153c24,41,61,81,121,81c45,0,131,-20,157,-107c41,43,122,107,217,107c105,0,229,-77,229,-255C851,191,645,-14,458,-14C367,-14,319,44,301,75C284,11,263,-71,244,-152c-6,-23,-16,-62,-16,-70c0,-18,41,-18,75,-18c18,0,39,0,39,-22c0,-29,-17,-33,-81,-33c-58,6,-110,6,-151,6c-50,-6,41,-6,-90,-6Z"
id="f2_1"
transform="scale(0.001,-0.001)"/>

<path d="M208,58c-2,0,-66,15,-66,40c0,1,0,6,6,24L383,784c8,23,25,70,88,70c45,0,94,-35,94,-90c0,-23,-13,-52,-15,-54L234,84C225,66,222,58,208,58Z"
id="f3_1"
transform="scale(0.001,-0.001)"/>

<path d="M248,-16C174,-16,122,37,122,108c0,33,20,83,35,123c25,65,94,243,106,282c6,16,17,48,17,80c0,49,-26,49,-39,49C189,642,128,596,87,452C79,428,78,425,63,425c-3,0,-19,0,-19,15c0,14,58,235,202,235c76,0,125,-56,125,-125c0,-29,-7,-50,-20,-81C336,428,336,425,318,380L258,220C223,127,214,105,214,67c0,-35,11,-50,37,-50c77,0,128,93,155,189c8,23,8,28,23,28c5,0,19,0,19,-16C448,205,391,-16,248,-16ZM353,874c-37,0,-58,26,-58,55c0,41,41,81,82,81c36,0,57,-25,57,-55c0,-46,-46,-81,-81,-81Z"
id="f0_1"
transform="scale(0.001,-0.001)"/>

<path d="M43,0V47c102,0,119,0,119,69V911c0,74,-12,85,-119,85v47l220,17V327L478,513c12,11,34,29,34,60c0,20,-15,37,-44,38l21,46c95,-3,150,-3,192,-3c20,0,-42,4,65,4V611c-33,-1,-97,-4,-193,-82C538,516,429,425,429,419c0,-5,8,-14,9,-17L633,128C691,47,724,47,781,47L736,3C692,5,648,5,616,5C526,2,648,0,483,0V47c29,0,55,6,55,36c0,27,-64,113,-182,275L258,273V116C258,47,275,47,377,47L316,3C255,5,209,5,165,5C93,2,209,0,43,0Z"
id="f4_5"
transform="scale(0.001,-0.001)"/>

<path d="M490,-381c-15,0,-146,99,-238,287C168,78,151,263,151,382c0,128,19,298,97,466c90,194,227,298,242,298c10,0,16,-5,16,-15c0,-5,0,-8,-20,-26C298,914,240,648,240,382c0,-234,49,-522,240,-714c26,-26,26,-29,26,-34c0,-10,-6,-15,-16,-15Z"
id="f4_1"
transform="scale(0.001,-0.001)"/>

<path d="M128,-16c-13,0,-44,8,-44,42c0,9,0,12,6,34L312,940l4,30c0,15,-3,26,-76,26c-23,0,-37,0,-37,18c0,28,17,29,29,31c40,3,151,15,187,15c19,0,19,-15,19,-17L280,399c58,23,117,84,169,142C559,663,629,675,672,675c69,0,104,-50,104,-96c0,-60,-44,-93,-84,-93c-41,0,-58,29,-58,53c0,19,14,78,87,83c-3,3,-3,4,-6,6c-12,9,-14,9,-32,12c-3,2,-5,2,-14,2C594,642,524,576,451,495C416,458,367,409,319,382C449,365,545,321,545,222c0,-16,0,-22,-6,-48C533,150,527,115,527,89c0,-55,20,-72,49,-72c67,0,102,78,133,189c4,22,6,28,21,28c5,0,19,0,19,-16c0,-3,-17,-87,-55,-154C660,8,619,-16,573,-16C493,-16,432,44,432,134c0,17,3,36,6,54c5,15,5,21,5,32C443,321,318,345,266,350C257,312,188,29,180,15C171,-2,148,-16,128,-16Z"
id="f0_3"
transform="scale(0.001,-0.001)"/>

<path d="M594,-126c-30,0,-30,29,-30,51V351H136c-21,0,-50,0,-50,31c0,31,29,31,50,31H564V840c0,22,0,51,30,51c31,0,31,-29,31,-51V413h426c22,0,51,0,51,-31c0,-31,-29,-31,-51,-31H625V-75c0,-22,0,-51,-31,-51Z"
id="f4_3"
transform="scale(0.001,-0.001)"/>

<path d="M145,0V47h49c138,0,142,19,142,74V912C257,872,167,872,136,872v48c49,0,183,0,278,98c35,0,35,-4,35,-40V121c0,-57,5,-74,142,-74h49L587,5H332C199,5,393,0,145,0Z"
id="f4_4"
transform="scale(0.001,-0.001)"/>

<path d="M102,-381c-9,0,-15,6,-15,15c0,5,0,8,20,26c189,193,246,461,246,722c0,319,-87,562,-237,713c-29,28,-29,31,-29,36c0,9,6,15,15,15c16,0,147,-99,239,-287C425,686,442,501,442,382C442,254,423,84,345,-83C255,-277,118,-381,102,-381Z"
id="f4_2"
transform="scale(0.001,-0.001)"/>

<path d="M180,351c-26,0,-53,0,-53,31c0,31,27,31,53,31h827c26,0,53,0,53,-31c0,-31,-27,-31,-53,-31Z"
id="f5_1"
transform="scale(0.001,-0.001)"/>

<path d="M115,-312c-74,0,-134,33,-134,95c0,55,43,87,82,87c41,0,58,-29,58,-54c0,-30,-23,-70,-69,-81c27,-14,50,-14,60,-14c85,0,158,87,187,204L443,493c6,26,11,43,11,78c0,65,-28,71,-49,71C321,642,251,548,212,455C200,426,199,425,185,425c-3,0,-18,0,-18,15c0,14,87,235,242,235c77,0,141,-53,141,-140c0,-5,0,-26,-8,-57L402,-80C364,-231,222,-312,115,-312ZM524,874c-35,0,-56,24,-56,55c0,46,45,81,80,81c37,0,59,-26,59,-55c0,-41,-42,-81,-83,-81Z"
id="f0_2"
transform="scale(0.001,-0.001)"/>

<path d="M383,-16C269,-16,167,37,167,176c0,58,18,128,85,308c11,26,28,69,28,107c0,49,-25,51,-39,51C188,642,128,594,87,452C79,428,78,425,63,425c-3,0,-19,0,-19,15c0,14,57,235,202,235c75,0,125,-56,125,-125c0,-31,-9,-52,-26,-98C273,264,266,205,266,156C266,130,266,17,388,17c60,0,105,47,141,128c-2,8,-2,11,-2,28c0,27,3,55,14,100c11,40,82,332,87,343c11,30,38,42,56,42c23,0,45,-13,45,-41c0,-9,-16,-65,-23,-99L642,261C636,240,625,193,625,150C625,63,666,17,738,17c75,0,128,53,168,134c40,78,84,228,84,280c0,73,-38,113,-55,130c-14,12,-23,21,-23,41c0,34,38,73,76,73c26,0,68,-23,68,-107c0,-73,-49,-278,-101,-397C915,79,848,-16,733,-16C688,-16,582,-7,542,90C481,-16,409,-16,383,-16Z"
id="f0_6"
transform="scale(0.001,-0.001)"/>


</defs>
<path d="M0,0
L0,187
L379,187
L379,0 Z " 
fill="#FFFFFF" stroke="none"/>
<g clip-path="url(#c_1)">
<path d="M205.6,129.3V107.6h43.3v21.7Z" class="g0"/>
<path d="M119,129.3V107.6h43.3v21.7Z" class="g0"/>
<path d="M97.3,129.3V107.6H119v21.7Z" class="g1"/>
<path d="M206.7,96.8h41.1" class="g2"/>
<path d="M209.1,100c-.2,-1.2,-2.4,-3,-3,-3.2c.6,-.2,2.8,-2,3,-3.2m36.4,0c.2,1.2,2.3,3,2.9,3.2c-.6,.2,-2.7,2,-2.9,3.2" class="g3"/>
<g fill="#00FF00" >
<use xlink:href="#f0_4" transform="matrix(10,0,0,10,221.3,88.2)"/>
<use xlink:href="#f1_1" transform="matrix(7,0,0,7,229,82.6)"/>
</g>
<text x="221" y="88" class="s1">p</text>
<text x="228" y="82" class="s2">0</text>
<path d="M120.1,96.8h41.1" class="g2"/>
<path d="M122.5,100c-.2,-1.2,-2.4,-3,-3,-3.2c.6,-.2,2.8,-2,3,-3.2m36.3,0c.2,1.2,2.4,3,3,3.2c-.6,.2,-2.8,2,-3,3.2" class="g3"/>
<g fill="#00FF00" >
<use xlink:href="#f0_5" transform="matrix(10,0,0,10,132.3,86.8)"/>
<use xlink:href="#f2_1" transform="matrix(7,0,0,7,137.8,89.1)"/>
</g>
<text x="132" y="86" class="s1">t</text>
<g fill="#00FF00" >
<use xlink:href="#f3_1" transform="matrix(5,0,0,5,144.1,86)"/>
</g>
<text x="137" y="89" class="s3">p</text>
<text x="144" y="86" class="s4">0</text>
<path d="M205.6,64.3V42.7h43.3V64.3Z" class="g0"/>
<path d="M184,64.3V42.7h21.6V64.3Z" class="g4"/>
<path d="M32.4,64.3V42.7H378.8V64.3Z" class="g5"/>
<path d="M184,129.3V107.6h21.6v21.7Z" class="g4"/>
<path d="M75.7,129.3V107.6H248.9v21.7Z" class="g5"/>
<g fill="#00AEEF" >
<use xlink:href="#f0_1" transform="matrix(10,0,0,10,73.1,26)"/>
</g>
<text x="73" y="26" class="s1">i</text>
<path d="M75.7,31.4V42" class="g6"/>
<path d="M78.1,40.1c-.9,.2,-2.3,1.9,-2.4,2.3C75.5,42,74.2,40.3,73.3,40.1" class="g7"/>
<path d="M75.7,42.7V64.3" class="g8"/>
<path d="M83.7,21h99.6" class="g9"/>
<path d="M181.4,18.6c.2,.9,1.9,2.3,2.3,2.4c-.4,.2,-2.1,1.5,-2.3,2.5" class="ga"/>
<g fill="#FF0000" >
<use xlink:href="#f4_5" transform="matrix(10,0,0,10,129.8,15.6)"/>
</g>
<text x="129" y="15" class="s5">k</text>
<path d="M205.6,172.6V150.9h43.3v21.7Z" class="g0"/>
<path d="M184,172.6V150.9h21.6v21.7Z" class="g1"/>
<path d="M162.3,172.6V150.9H335.5v21.7Z" class="g5"/>
<path d="M75.7,161.8h85.5" class="gb"/>
<path d="M158.8,158.6c.2,1.2,2.4,3,3,3.2c-.6,.2,-2.8,1.9,-3,3.1" class="gc"/>
<g fill="#BF0040" >
<use xlink:href="#f4_1" transform="matrix(10,0,0,10,82.9,178.9)"/>
<use xlink:href="#f0_3" transform="matrix(10,0,0,10,88.8,178.9)"/>
</g>
<text x="82" y="178" class="s5">(</text>
<g fill="#BF0040" >
<use xlink:href="#f4_3" transform="matrix(10,0,0,10,100.6,178.9)"/>
</g>
<text x="88" y="178" class="s1">k</text>
<g fill="#BF0040" >
<use xlink:href="#f4_4" transform="matrix(10,0,0,10,115.8,178.9)"/>
<use xlink:href="#f4_2" transform="matrix(10,0,0,10,123.4,178.9)"/>
<use xlink:href="#f5_1" transform="matrix(10,0,0,10,132.7,178.9)"/>
</g>
<text x="100" y="178" dx="0,0,-.4,0" class="s5">+ 1)</text>
<g fill="#BF0040" >
<use xlink:href="#f0_2" transform="matrix(10,0,0,10,148,178.9)"/>
</g>
<text x="132" y="178" class="s6">-</text>
<g fill="#000000" >
<use xlink:href="#f0_6" transform="matrix(10,0,0,10,5.1,56.8)"/>
</g>
<text x="147" y="178" class="s1">j</text>
<g fill="#000000" >
<use xlink:href="#f0_4" transform="matrix(10,0,0,10,50.2,120.3)"/>
</g>
<text x="5" y="56" class="s1">w</text>
<text x="50" y="120" class="s1">p</text>

</g>

<!-- Any embedded fonts defined here -->
<style type="text/css" ><![CDATA[

@font-face {
	font-family: CMMI10_k;
	src: url("fonts/CMMI10_k.woff") format("woff");
}

@font-face {
	font-family: CMMI7_m;
	src: url("fonts/CMMI7_m.woff") format("woff");
}

@font-face {
	font-family: CMR10_o;
	src: url("fonts/CMR10_o.woff") format("woff");
}

@font-face {
	font-family: CMSY10_q;
	src: url("fonts/CMSY10_q.woff") format("woff");
}

@font-face {
	font-family: CMSY5_s;
	src: url("fonts/CMSY5_s.woff") format("woff");
}

@font-face {
	font-family: CMSY7_u;
	src: url("fonts/CMSY7_u.woff") format("woff");
}

]]></style>

</svg>
